<svg width="1066" height="589" viewBox="0 0 1066 589" fill="none" xmlns="http://www.w3.org/2000/svg">
<g clip-path="url(#clip0_45_14)">
<rect width="1066" height="589" fill="#72866B"/>
<path d="M9.61488 574.081C9.61488 571.368 6.91566 562.33 -0.582148 544.84C-7.16272 529.489 -12.6332 512.817 -16.0481 501.863C-18.728 493.267 -20.3764 474.265 -17.2137 451.451C-16.0977 443.401 -2.7088 442.774 10.0238 441.397C19.7907 440.341 32.2719 440.02 44.1116 445.235C50.9314 448.238 59.1004 453.625 68.6499 460.448C80.441 468.873 84.1022 477.264 95.9079 495.395C103.089 506.424 107.741 517.234 113.882 531.766C117.284 539.816 118.674 546.325 120.937 557.436C125.261 578.664 124.127 587.223 126.158 592.921C128.556 599.647 136.369 601.782 159.926 613.567C165.897 616.328 169.495 617.677 174.499 618.373C179.502 619.068 185.8 619.068 192.289 619.068" stroke="#ACB699" stroke-width="4" stroke-linecap="round"/>
<path d="M-35.372 410.492C-29.0602 400.104 -12.715 372.921 -5.62613 358.273C-0.69352 348.081 -0.854793 337.396 3.91654 329.182C6.82584 324.174 9.13775 315.57 14.5703 305.373C20.622 294.014 37.6703 280.617 56.967 266.766C72.9982 255.259 85.8744 248.294 106.787 236.72C115.205 232.061 122.273 232.808 129.096 233.946C140.627 235.87 147.711 244.613 156.811 250.06C166.515 255.868 171.813 260.972 176.366 266.194C183.229 274.063 189.999 281.857 194.77 288.005C199.46 294.049 203.167 300.942 207.496 309.579C211.923 318.413 217.7 326.381 225.886 335.255C229.277 338.932 233.159 342.317 239.048 344.362C251.515 348.691 262.223 340.531 269.285 336.891C278.703 332.037 286.325 326.462 295.179 320.314C302.848 314.989 308.137 306.477 314.728 300.322C323.733 291.913 325.423 279.676 328.599 270.563C331.409 262.501 334.066 229.454 332.934 208.317C332.126 193.227 326.35 176.97 323.623 170.358C321.126 164.301 316.807 157.884 308.88 144.709C303.63 135.983 295.922 130.592 271.459 100.253C259.033 84.8435 248.209 82.8789 231.891 73.5816C219.584 66.5698 208.239 61.0671 188.056 48.832C173.159 39.801 165.978 31.5666 156.647 18.8339C145.315 3.37086 155.018 -27.9933 157.281 -32.3012C161.711 -40.7352 171.813 -41.1758 180.667 -44.8157C182.733 -45.7291 184.082 -46.6288 185.902 -47.3172C187.722 -48.0057 189.971 -48.4555 195.015 -51.6455" stroke="#ACB699" stroke-width="4" stroke-linecap="round"/>
<path d="M105.042 -29.8337C105.491 -30.7334 105.941 -31.6332 104.823 -32.0967C96.5543 -35.5254 86.9105 -34.3869 78.9424 -33.4735C70.5755 -32.5145 64.6352 -26.2347 58.9369 -21.443C53.6771 -17.02 50.5393 -7.6129 46.8858 3.06126C43.8846 11.8298 46.8722 20.5789 50.9278 26.9179C64.1878 47.6436 81.3758 44.2174 90.0119 45.3694C102.649 47.055 120.882 48.3071 131.359 49.684C137.343 50.4704 148.134 56.0094 163.77 64.8432C180.346 74.208 194.497 86.8868 204.715 97.5541C210.566 103.663 214.073 108.74 222.437 117.771C250.069 147.61 252.271 157.802 254.534 167.563C256.323 175.279 254.548 181.905 250.717 187.78C242.968 199.665 233.2 205.543 229.805 207.131C213.147 214.925 185.064 206.934 167.362 197.186C157.581 191.801 153.709 176.097 148.679 165.593C144.035 155.898 137.323 143.325 132.102 134.921C126.904 126.554 93.4541 126.939 77.5723 128.07C74.1786 128.312 66.9254 130.551 51.998 138.683C27.707 151.916 13.7182 165.996 9.64896 171.428C3.71059 179.356 -3.0905 185.981 -9.64086 195.925C-31.1009 228.506 -38.5347 240.497 -42.1746 247.108C-45.709 253.528 -46.2779 261.845 -50.1154 269.595C-52.1535 271.865 -55.3025 275.014 -57.8245 277.086C-60.3465 279.158 -62.146 280.058 -64 280.985" stroke="#ACB699" stroke-width="4" stroke-linecap="round"/>
<path d="M380.416 -83C352.824 -71.2625 324.55 -52.1363 318.409 -45.9881C315.756 -43.3325 313.644 -37.5905 307.305 -28.9953C298.155 -16.5877 291.383 0.0757542 286.161 15.0441C278.111 38.1227 283.162 56.4593 292.221 73.2544C297.742 83.4906 309.936 88.2773 322.424 90.8061C330.864 92.5153 354.323 97.3701 384.976 102.141C400.676 104.585 414.401 105.563 439.287 108.29C454.662 109.974 475.87 109.217 494.41 107.867C528.397 105.393 546.254 99.2377 550.786 96.2863C552.93 94.8908 555.319 94.6845 569.974 87.7047C584.629 80.7249 611.621 67.2289 632.499 58.252C666.656 43.5656 683.491 40.155 688.017 38.5668C700.126 34.3177 708.929 35.1655 724.797 33.7886C734.61 32.9371 742.546 29.7126 748.695 28.5606C757.024 27 766.185 25.6228 778.884 19.4951C789.798 14.2283 799.802 9.72749 805.501 3.13623C810.904 -3.11351 814.362 -12.0843 815.739 -19.1255C816.142 -21.1868 817.088 -23.4265 815.752 -25.7099C814.416 -27.9933 810.817 -30.2427 808.289 -31.4014C805.76 -32.5602 804.41 -32.5602 803.02 -32.5602" stroke="#ACB699" stroke-width="4" stroke-linecap="round"/>
<path d="M485.385 -53.0088C481.309 -51.6592 449.777 -34.5233 431.101 -24.1695C419.823 -17.917 412.234 2.39323 409.057 10.8044C408.262 12.9112 407.244 14.6624 406.781 16.7141C406.317 18.7657 406.317 21.0151 409.691 24.1982C418.74 32.7351 434.414 38.7508 448.475 44.1969C467.356 51.5092 475.829 50.1338 490.47 51.2721C503.724 52.3026 528.954 51.0608 546.431 50.1543C583.752 48.2184 589.864 41.9817 595.562 40.3799C601.441 38.7273 618.819 21.6422 639.826 2.03197C648.995 -6.52633 659.362 -11.1574 673.914 -18.6756C683.966 -23.8687 694.806 -28.4432 705.964 -30.2836C708.479 -30.7335 710.728 -31.6332 714.137 -32.0967C717.545 -32.5602 722.043 -32.5602 726.678 -32.5602" stroke="#ACB699" stroke-width="4" stroke-linecap="round"/>
<path d="M996.6 -39.3764C992.987 -39.3764 983.922 -35.7775 975.504 -30.0859C964.512 -22.6543 960.719 -18.9551 955.498 -14.8517C952.472 -12.4738 943.951 -2.21452 933.284 16.8299C919.415 41.5912 922.549 50.1066 921.172 56.7047C919.122 66.5291 919.795 73.7451 920.708 80.3364C921.857 88.6274 933.4 93.7575 941.361 97.3837C949.995 101.316 963.8 110.989 979.28 118.282C988.933 122.831 997.472 124.648 1045.71 125.351C1063.41 125.608 1076.05 121.513 1086.31 119.223C1100.29 116.102 1106.99 109.707 1114.94 106.729C1121.94 103.355 1126.56 99.2377 1127.69 95.8364C1128.37 94.2346 1129.27 92.885 1130.2 91.4945" stroke="#ACB699" stroke-width="4" stroke-linecap="round"/>
<path d="M1113.84 240.088C1113.84 247.313 1113.39 259.146 1111.13 263.91C1105.51 275.778 1087.09 276.868 1077.98 281.196C1074.94 282.641 1069.86 283.684 1052.47 284.379C1035.07 285.074 1005.38 285.074 986.934 283.725C953.201 281.256 947.55 273.732 937.79 263.985C931.11 257.315 927.538 250.121 926.625 241.035C926.021 235.03 924.348 227.409 925.698 218.569C928.262 201.772 943.842 194.255 946.61 184.229C949.105 175.187 947.087 160.665 943.447 151.273C940.865 144.611 938.907 136.536 934.136 127.423C930.564 120.601 923.476 114.697 916.877 108.106C907.831 99.0683 887.213 88.3863 874.617 81.5156C867.693 77.7391 855.368 67.038 845.532 60.1537C839.863 56.1853 833.038 54.2508 820.824 51.0609C787.783 42.4319 780.335 53.7601 767.623 58.5314C758.571 61.9291 750.78 69.1919 745.559 73.9837C739.146 79.8695 735.321 85.5644 734.183 89.6473C732.039 97.3377 742.546 105.563 746.65 113.265C755.424 129.736 767.985 131.001 777.295 138.942C797.795 156.426 820.197 157.802 831.389 160.788C839.158 162.86 848.416 167.345 855.259 173.493C860.352 178.069 859.812 186.43 859.826 198.236C859.836 206.603 851.197 210.069 841.463 222.318C834.301 231.331 828.049 235.971 822.35 240.524C815.918 245.663 806.264 253.229 788.999 264.585C776.398 272.873 753.643 281.83 739.663 285.524C734.047 287.009 710.524 287.801 678.951 288.251C662.464 288.486 656.281 292.327 650.133 293.929C639.817 296.616 628.116 303.696 616.542 308.897C592.192 319.839 585.829 329.57 573.137 343.639C566.514 350.98 565.816 371.695 568.072 388.415C569.692 400.418 583.947 406.812 605.943 420.437C620.947 429.731 631.661 435.017 647.699 441.785C659.445 446.742 677.684 456.652 690.559 463.993C710.674 475.461 720.285 482.28 726.631 484.768C742.996 491.184 769.239 507.637 782.319 519.517C790.369 526.829 797.076 532.72 811.145 546.08C821.807 556.205 833.447 568.137 837.087 574.285C840.277 580.884 841.19 585.423 841.64 589.274C842.09 591.326 842.99 593.575 843.917 598.619" stroke="#ACB699" stroke-width="4" stroke-linecap="round"/>
<path d="M1107.02 334.151C1105.25 340.913 1095.22 355.472 1083.67 366.371C1074.61 374.924 1069.34 382.301 1062.97 385.94C1054.61 390.716 1045.7 391.843 1026.45 397.296C1017.44 399.848 1011.61 398.673 1001.24 399.355C992.24 399.947 975.578 399.586 955.532 396.437C935.486 393.288 912.542 386.99 900.048 383.296C874.962 375.878 852.587 366.432 846.439 365.056C842.874 364.257 834.892 362.779 824.675 363.004C815.722 363.201 809.863 370.495 805.31 375.934C800.743 381.39 795.331 386.827 789.633 390.712C784.001 394.552 784.861 403.185 784.834 423.13C784.807 443.165 802.065 454.525 807.321 461.818C812.859 469.504 827.04 477.264 836.842 484.312C843.375 489.009 852.042 498.149 859.117 512.224C865.575 525.072 871.127 540.818 876.614 553.585C883.689 570.045 886.614 577.68 887.99 589.935C889.336 601.91 892.066 610.861 892.769 623.11C892.544 625.87 892.094 627.22 890.962 628.815C889.831 630.41 888.031 632.209 884.814 636.79" stroke="#ACB699" stroke-width="4" stroke-linecap="round"/>
<path d="M676.239 595.893C659.048 591.38 637.223 583.187 617.258 579.779C591.15 575.323 574.595 566.42 555.871 557.068C543.053 550.666 530.399 541.391 520.189 534.799C512.028 529.531 489.229 505.21 474.275 487.1C465.004 475.873 458.611 459.16 451.1 441.458C447.616 433.249 447.214 420.117 446.083 402.851C444.176 373.753 452.177 359.262 462.176 338.984C467.066 329.067 476.279 317.847 486.701 307.384C498.302 295.737 506.243 289.219 517.605 282.143C528.106 275.605 540.76 266.507 555.312 256.256C566.514 248.365 573.505 240.578 581.677 230.368C596.463 211.895 607.559 199.299 613.066 185.381C619.511 169.092 612.166 161.033 611.492 158.539C609.537 151.311 597.198 151.477 584.309 149.214C546.867 142.641 538.142 150.114 531.531 151.245C522.151 152.851 509.514 156.93 502.453 159.418C492.937 162.771 477.315 165.546 465.196 168.736C457.446 170.775 449.068 170.562 435.947 177.549C410.899 190.886 394.512 204.166 392.474 208.474C387.644 218.681 378.644 239.951 375.426 259.112C372.897 274.175 366.374 294.453 361.569 310.478C357.877 322.79 358.168 330.47 356.341 339.338C353.383 353.698 344.099 360.025 339.764 366.617C333.893 375.544 323.187 375.484 316.146 378.899C308.038 382.832 299.112 382.301 292.289 383.677C280.497 386.057 264.186 388.653 246.873 392.307C238.72 394.027 232.314 397.296 221.864 399.805C213.644 401.778 204.149 407.739 195.724 410.029C192.168 410.995 188.24 418.631 182.105 429.039C168.896 451.451 183.182 465.867 187.954 472.049C192.485 477.921 199.078 485.879 225.804 509.239C234.401 516.752 242.688 517.725 254.671 521.337C274.694 527.374 291.301 535.883 301.048 540.648C318.401 549.13 331.748 557.668 348.973 575.799C356.289 583.5 365.229 596.547 372.12 608.21C384.624 629.37 387.232 644.029 387.007 650.375C386.332 656.72 384.069 662.214 381.118 666.522C379.966 668.581 379.516 670.38 379.053 672.234" stroke="#ACB699" stroke-width="4" stroke-linecap="round"/>
</g>
<defs>
<clipPath id="clip0_45_14">
<rect width="1066" height="589" fill="white"/>
</clipPath>
</defs>
</svg>
